# Blender 5.1.1
# www.blender.org
mtllib axe.mtl
o Circle
v -0.000001 0.003892 -0.040335
v -0.038510 0.001163 -0.018592
v -0.038489 -0.004199 0.025710
v -0.000001 -0.007289 0.048247
v 0.038493 -0.004237 0.026342
v 0.038520 0.001063 -0.017978
v -0.000000 0.633070 -0.046053
v -0.037182 0.637683 -0.025373
v -0.037178 0.647939 0.016918
v -0.000000 0.653692 0.038640
v 0.037176 0.648737 0.017638
v 0.037185 0.638545 -0.024649
v -0.034698 0.113002 -0.001187
v -0.030642 0.203327 0.012356
v -0.028379 0.283047 0.020240
v -0.026964 0.351171 0.024244
v -0.026585 0.414925 0.021983
v -0.027910 0.476277 0.014326
v -0.032624 0.542737 -0.000039
v -0.032586 0.550517 0.037352
v -0.027829 0.480486 0.046541
v -0.026578 0.416542 0.052581
v -0.026952 0.351124 0.055233
v -0.028372 0.281369 0.052878
v -0.030649 0.200439 0.047697
v -0.034701 0.108541 0.038751
v 0.034703 0.108538 0.039822
v 0.030649 0.200533 0.049060
v 0.028367 0.281606 0.054395
v 0.026945 0.351503 0.056890
v 0.026572 0.417081 0.054310
v 0.027820 0.481210 0.048013
v 0.032585 0.551398 0.038519
v 0.032620 0.543639 0.001133
v 0.027899 0.477041 0.015830
v 0.026581 0.415486 0.023723
v 0.026959 0.351574 0.025916
v 0.028377 0.283297 0.021768
v 0.030641 0.203413 0.013728
v 0.034700 0.112976 -0.000123
v -0.000000 0.554987 0.056829
v -0.000000 0.483055 0.063602
v -0.000000 0.417718 0.069090
v -0.000000 0.351371 0.071905
v -0.000000 0.280687 0.070255
v -0.000001 0.199040 0.066263
v -0.000001 0.106279 0.059416
v -0.000001 0.115217 -0.020456
v -0.000001 0.204822 -0.004424
v -0.000000 0.283888 0.004760
v -0.000000 0.351155 0.009599
v -0.000000 0.414232 0.007604
v -0.000000 0.474614 -0.000978
v -0.000000 0.539443 -0.018041
v 0.004770 0.467976 0.213633
v 0.005161 0.665589 0.176485
v -0.012755 0.453556 -0.031940
v -0.011714 0.603767 -0.060178
v 0.013674 0.467786 0.213772
v 0.014065 0.665398 0.176624
v 0.010970 0.453412 -0.031834
v 0.012011 0.603622 -0.060071
v 0.003645 0.575690 0.240471
v -0.016102 0.521969 -0.081802
v 0.015596 0.521776 -0.081660
v 0.014138 0.575436 0.240658
v -0.019106 0.480906 0.112245
v -0.017562 0.630649 0.084096
v 0.015968 0.480762 0.112351
v 0.017511 0.630505 0.084202
v 0.021631 0.558819 0.115369
v -0.023366 0.559012 0.115228
v -0.010162 0.605368 0.013695
v 0.008941 0.478747 0.037564
v -0.013646 0.540679 0.017819
v -0.011039 0.478868 0.037475
v 0.009818 0.605246 0.013784
v 0.012477 0.540520 0.017935
v -0.014155 0.475688 0.150326
v 0.011999 0.649199 0.117800
v 0.021704 0.568317 0.165983
v -0.013057 0.649366 0.117678
v 0.010899 0.475521 0.150449
v -0.024012 0.568541 0.165818
v -0.000893 0.453484 -0.031887
v 0.000149 0.603695 -0.060124
v 0.010629 0.467550 0.217045
v 0.011019 0.665163 0.179897
v 0.010788 0.575118 0.245071
v -0.000253 0.521873 -0.081731
v -0.000026 0.630577 0.084149
v -0.001569 0.480834 0.112298
v -0.001049 0.478807 0.037519
v -0.000172 0.605307 0.013739
v -0.000529 0.649282 0.117739
v -0.001628 0.475605 0.150387
vn -0.9989 -0.0450 0.0107
vn 0.9989 -0.0450 0.0107
vn -0.5191 0.1534 0.8409
vn -0.4909 -0.2481 -0.8351
vn 0.5123 -0.2471 -0.8225
vn 0.4994 0.1581 0.8518
vn 0.4961 -0.0858 0.8640
vn 0.4924 -0.0648 0.8679
vn 0.4896 -0.0431 0.8709
vn 0.4876 -0.0208 0.8728
vn 0.4864 0.0371 0.8730
vn 0.4887 0.0744 0.8693
vn 0.4934 0.0826 0.8659
vn 0.5056 0.1522 -0.8492
vn 0.5079 0.1522 -0.8479
vn 0.5117 0.0998 -0.8533
vn 0.5150 0.0621 -0.8549
vn 0.5186 -0.0266 -0.8546
vn 0.5194 -0.1199 -0.8461
vn 0.5162 -0.2186 -0.8281
vn -0.4909 0.1517 -0.8579
vn -0.4840 0.1525 -0.8616
vn -0.4802 0.1005 -0.8714
vn -0.4779 0.0622 -0.8762
vn -0.4766 -0.0281 -0.8787
vn -0.4788 -0.1212 -0.8695
vn -0.4840 -0.2201 -0.8469
vn -0.5111 -0.0830 0.8555
vn -0.5163 -0.0617 0.8542
vn -0.5207 -0.0408 0.8527
vn -0.5241 -0.0190 0.8514
vn -0.5272 0.0367 0.8489
vn -0.5273 0.0704 0.8468
vn -0.5226 0.0780 0.8490
vn 0.9994 0.0333 0.0041
vn 0.9990 0.0439 0.0041
vn 0.9996 0.0281 0.0019
vn 0.9998 0.0205 0.0009
vn 1.0000 0.0058 0.0002
vn 0.9998 -0.0200 0.0032
vn 0.9977 -0.0669 0.0131
vn -0.9994 0.0333 0.0041
vn -0.9990 0.0439 0.0042
vn -0.9996 0.0281 0.0019
vn -0.9998 0.0205 0.0008
vn -1.0000 0.0058 0.0002
vn -0.9998 -0.0202 0.0033
vn -0.9977 -0.0669 0.0132
vn -0.0003 -0.9926 -0.1218
vn 0.0005 -0.9922 -0.1248
vn -0.0116 0.9716 -0.2363
vn -0.0055 0.9718 -0.2358
vn -0.9985 0.0516 0.0170
vn 0.0059 0.2553 -0.9668
vn 0.9968 0.0754 0.0279
vn -0.4136 0.5335 0.7377
vn -0.0148 -0.9928 -0.1189
vn 0.0782 0.9586 -0.2737
vn -0.5244 -0.2125 0.8245
vn 0.9974 -0.0633 0.0343
vn -0.0000 -0.5890 -0.8081
vn -0.9991 -0.0285 0.0321
vn -0.9947 -0.0878 0.0526
vn 0.9936 -0.0754 -0.0845
vn 0.0057 0.9413 -0.3376
vn -0.0049 -0.9996 0.0272
vn 0.9942 0.0221 -0.1055
vn -0.9935 0.1132 0.0076
vn 0.9989 0.0395 0.0260
vn -0.0073 -0.9394 0.3427
vn 0.0062 0.9997 -0.0218
vn 0.9983 -0.0407 0.0410
vn -0.9936 -0.0602 -0.0955
vn -0.9930 0.0388 -0.1114
vn -0.9285 0.2488 0.2756
vn -0.9409 -0.1185 0.3172
vn 0.9929 -0.1023 0.0608
vn 0.0064 0.8734 -0.4870
vn -0.0046 -0.9906 -0.1365
vn 0.9940 0.1052 0.0290
vn -0.0046 -0.9908 -0.1356
vn 0.0064 0.8740 -0.4859
vn -0.0049 -0.9996 0.0269
vn 0.0057 0.9411 -0.3380
vn 0.7642 -0.1615 0.6244
vn -0.0609 0.9665 -0.2494
vn -0.0050 -0.9929 -0.1193
vn 0.6795 0.4274 0.5963
vt 0.000000 0.000000
vt 0.500000 0.166487
vt 0.625000 0.166487
vt 0.625000 0.250000
vt 0.500000 0.250000
vt 0.500000 0.375000
vt 0.625000 0.375000
vt 0.625000 0.500000
vt 0.500000 0.500000
vt 0.500000 0.708513
vt 0.625000 0.708513
vt 0.625000 0.750000
vt 0.500000 0.750000
vt 0.500000 0.875000
vt 0.625000 0.875000
vt 0.625000 1.000000
vt 0.500000 1.000000
vt 0.250000 0.708513
vt 0.375000 0.708513
vt 0.375000 0.750000
vt 0.250000 0.750000
vt 0.750000 0.708513
vt 0.875000 0.708513
vt 0.875000 0.750000
vt 0.750000 0.750000
vt 0.375000 0.875000
vt 0.375000 1.000000
vt 0.375000 0.375000
vt 0.375000 0.500000
vt 0.375000 0.166487
vt 0.375000 0.250000
vt 0.375000 0.041487
vt 0.500000 0.041487
vt 0.500000 0.082974
vt 0.375000 0.082974
vt 0.375000 0.583513
vt 0.500000 0.583513
vt 0.500000 0.667026
vt 0.375000 0.667026
vt 0.750000 0.583513
vt 0.875000 0.583513
vt 0.875000 0.667026
vt 0.750000 0.667026
vt 0.250000 0.583513
vt 0.250000 0.667026
vt 0.625000 0.583513
vt 0.625000 0.667026
vt 0.625000 0.041487
vt 0.625000 0.082974
vt 0.250000 0.500000
vt 0.750000 0.500000
vt 0.875000 0.500000
vt 0.500000 0.000000
vt 0.625000 0.000000
vt 0.375000 0.000000
vt 0.125000 0.667026
vt 0.125000 0.708513
vt 0.125000 0.500000
vt 0.125000 0.583513
vt 0.125000 0.750000
s 0
usemtl Wood
f 20/1/1 9/1/1 8/1/1 19/1/1
f 34/1/2 12/1/2 11/1/2 33/1/2
f 41/1/3 10/1/3 9/1/3 20/1/3
f 19/1/4 8/1/4 7/1/4 54/1/4
f 54/1/5 7/1/5 12/1/5 34/1/5
f 33/1/6 11/1/6 10/1/6 41/1/6
f 5/1/7 27/1/7 47/1/7 4/1/7
f 27/1/8 28/1/8 46/1/8 47/1/8
f 28/1/9 29/1/9 45/1/9 46/1/9
f 29/1/10 30/1/10 44/1/10 45/1/10
f 30/1/11 31/1/11 43/1/11 44/1/11
f 31/1/12 32/1/12 42/1/12 43/1/12
f 32/1/13 33/1/13 41/1/13 42/1/13
f 1/1/14 48/1/14 40/1/14 6/1/14
f 48/1/15 49/1/15 39/1/15 40/1/15
f 49/1/16 50/1/16 38/1/16 39/1/16
f 50/1/17 51/1/17 37/1/17 38/1/17
f 51/1/18 52/1/18 36/1/18 37/1/18
f 52/1/19 53/1/19 35/1/19 36/1/19
f 53/1/20 54/1/20 34/1/20 35/1/20
f 2/1/21 13/1/21 48/1/21 1/1/21
f 13/1/22 14/1/22 49/1/22 48/1/22
f 14/1/23 15/1/23 50/1/23 49/1/23
f 15/1/24 16/1/24 51/1/24 50/1/24
f 16/1/25 17/1/25 52/1/25 51/1/25
f 17/1/26 18/1/26 53/1/26 52/1/26
f 18/1/27 19/1/27 54/1/27 53/1/27
f 4/1/28 47/1/28 26/1/28 3/1/28
f 47/1/29 46/1/29 25/1/29 26/1/29
f 46/1/30 45/1/30 24/1/30 25/1/30
f 45/1/31 44/1/31 23/1/31 24/1/31
f 44/1/32 43/1/32 22/1/32 23/1/32
f 43/1/33 42/1/33 21/1/33 22/1/33
f 42/1/34 41/1/34 20/1/34 21/1/34
f 6/1/35 40/1/35 27/1/35 5/1/35
f 40/1/36 39/1/36 28/1/36 27/1/36
f 39/1/37 38/1/37 29/1/37 28/1/37
f 38/1/38 37/1/38 30/1/38 29/1/38
f 37/1/39 36/1/39 31/1/39 30/1/39
f 36/1/40 35/1/40 32/1/40 31/1/40
f 35/1/41 34/1/41 33/1/41 32/1/41
f 3/1/42 26/1/42 13/1/42 2/1/42
f 26/1/43 25/1/43 14/1/43 13/1/43
f 25/1/44 24/1/44 15/1/44 14/1/44
f 24/1/45 23/1/45 16/1/45 15/1/45
f 23/1/46 22/1/46 17/1/46 16/1/46
f 22/1/47 21/1/47 18/1/47 17/1/47
f 21/1/48 20/1/48 19/1/48 18/1/48
f 2/1/49 1/1/49 6/1/49 3/1/49
f 3/1/50 6/1/50 5/1/50 4/1/50
f 8/1/51 9/1/51 10/1/51 7/1/51
f 7/1/52 10/1/52 11/1/52 12/1/52
usemtl Stone
f 75/2/53 73/3/53 58/4/53 64/5/53
f 90/6/54 86/7/54 62/8/54 65/9/54
f 81/10/55 80/11/55 60/12/55 66/13/55
f 89/14/56 88/15/56 56/16/56 63/17/56
f 96/18/57 83/19/57 59/20/57 87/21/57
f 95/22/58 82/23/58 56/24/58 88/25/58
f 87/26/59 89/14/59 63/17/59 55/27/59
f 83/19/60 81/10/60 66/13/60 59/20/60
f 85/28/61 90/6/61 65/9/61 61/29/61
f 76/30/62 75/2/62 64/5/62 57/31/62
f 79/32/63 84/33/63 72/34/63 67/35/63
f 74/36/64 78/37/64 71/38/64 69/39/64
f 94/40/65 73/41/65 68/42/65 91/43/65
f 93/44/66 74/36/66 69/39/66 92/45/66
f 78/37/67 77/46/67 70/47/67 71/38/67
f 84/33/68 82/48/68 68/49/68 72/34/68
f 65/9/69 62/8/69 77/46/69 78/37/69
f 85/50/70 61/29/70 74/36/70 93/44/70
f 86/51/71 58/52/71 73/41/71 94/40/71
f 61/29/72 65/9/72 78/37/72 74/36/72
f 67/35/73 72/34/73 75/2/73 76/30/73
f 72/34/74 68/49/74 73/3/74 75/2/74
f 63/53/75 56/54/75 82/48/75 84/33/75
f 55/55/76 63/53/76 84/33/76 79/32/76
f 69/39/77 71/38/77 81/10/77 83/19/77
f 91/43/78 68/42/78 82/23/78 95/22/78
f 92/45/79 69/39/79 83/19/79 96/18/79
f 71/38/80 70/47/80 80/11/80 81/10/80
f 67/56/81 92/45/81 96/18/81 79/57/81
f 70/47/82 91/43/82 95/22/82 80/11/82
f 62/8/71 86/51/71 94/40/71 77/46/71
f 57/58/70 85/50/70 93/44/70 76/59/70
f 76/59/83 93/44/83 92/45/83 67/56/83
f 77/46/84 94/40/84 91/43/84 70/47/84
f 57/31/61 64/5/61 90/6/61 85/28/61
f 59/20/85 66/13/85 89/14/85 87/26/85
f 80/11/86 95/22/86 88/25/86 60/12/86
f 79/57/87 96/18/87 87/21/87 55/60/87
f 66/13/88 60/12/88 88/15/88 89/14/88
f 64/5/54 58/4/54 86/7/54 90/6/54
