# Blender 5.0.1
# www.blender.org
mtllib crafting_station.mtl
o Cube.001
v -0.540768 0.970501 0.415237
v -0.540768 1.021135 0.415237
v -0.540768 0.970501 -0.415237
v -0.540768 1.021135 -0.415237
v 0.540768 0.970501 0.415237
v 0.540768 1.021135 0.415237
v 0.540768 0.970501 -0.415237
v 0.540768 1.021135 -0.415237
v -1.000000 0.898275 -0.500000
v -1.000000 0.998275 -0.500000
v 1.000000 0.898275 -0.500000
v 1.000000 0.998275 -0.500000
v -1.000000 0.898275 0.500000
v -1.000000 0.998275 0.500000
v 1.000000 0.898275 0.500000
v 1.000000 0.998275 0.500000
v 0.888417 -0.047910 0.486774
v 0.801261 0.944493 0.399950
v 0.888417 -0.056626 0.387155
v 0.801261 0.935778 0.300331
v 0.988036 -0.039228 0.486014
v 0.900880 0.953176 0.399190
v 0.988036 -0.047944 0.386395
v 0.900880 0.944460 0.299571
v 0.888416 -0.047910 -0.486775
v 0.801261 0.944493 -0.399951
v 0.888416 -0.056626 -0.387155
v 0.801261 0.935778 -0.300331
v 0.988036 -0.039228 -0.486015
v 0.900880 0.953176 -0.399191
v 0.988036 -0.047944 -0.386396
v 0.900880 0.944460 -0.299572
v -0.888416 -0.047910 0.486775
v -0.801260 0.944493 0.399951
v -0.888416 -0.056626 0.387155
v -0.801261 0.935778 0.300331
v -0.988036 -0.039228 0.486015
v -0.900880 0.953176 0.399191
v -0.988036 -0.047944 0.386396
v -0.900880 0.944460 0.299572
v -0.888417 -0.047910 -0.486774
v -0.801261 0.944493 -0.399950
v -0.888417 -0.056626 -0.387154
v -0.801261 0.935778 -0.300330
v -0.988036 -0.039228 -0.486014
v -0.900880 0.953176 -0.399190
v -0.988036 -0.047944 -0.386395
v -0.900881 0.944460 -0.299571
vn -1.0000 -0.0000 -0.0000
vn -0.0000 -0.0000 -1.0000
vn 1.0000 -0.0000 -0.0000
vn -0.0000 -0.0000 1.0000
vn -0.0000 -1.0000 -0.0000
vn -0.0000 1.0000 -0.0000
vn -0.9962 -0.0868 0.0076
vn -0.0000 -0.0872 -0.9962
vn 0.9962 0.0868 -0.0076
vn -0.0000 0.0872 0.9962
vn 0.0872 -0.9924 0.0868
vn -0.0872 0.9924 -0.0868
vn -0.9962 -0.0868 -0.0076
vn -0.0000 -0.0872 0.9962
vn 0.9962 0.0868 0.0076
vn -0.0000 0.0872 -0.9962
vn 0.0872 -0.9924 -0.0868
vn -0.0872 0.9924 0.0868
vn 0.9962 -0.0868 0.0076
vn -0.9962 0.0868 -0.0076
vn -0.0872 -0.9924 0.0868
vn 0.0872 0.9924 -0.0868
vn 0.9962 -0.0868 -0.0076
vn -0.9962 0.0868 0.0076
vn -0.0872 -0.9924 -0.0868
vn 0.0872 0.9924 0.0868
vt 0.375000 0.000000
vt 0.625000 0.000000
vt 0.625000 0.250000
vt 0.375000 0.250000
vt 0.625000 0.500000
vt 0.375000 0.500000
vt 0.625000 0.750000
vt 0.375000 0.750000
vt 0.625000 1.000000
vt 0.375000 1.000000
vt 0.125000 0.500000
vt 0.125000 0.750000
vt 0.875000 0.500000
vt 0.875000 0.750000
s 0
f 1/1/1 2/2/1 4/3/1 3/4/1
f 3/4/2 4/3/2 8/5/2 7/6/2
f 7/6/3 8/5/3 6/7/3 5/8/3
f 5/8/4 6/7/4 2/9/4 1/10/4
f 3/11/5 7/6/5 5/8/5 1/12/5
f 8/5/6 4/13/6 2/14/6 6/7/6
f 9/1/2 10/2/2 12/3/2 11/4/2
f 11/4/3 12/3/3 16/5/3 15/6/3
f 15/6/4 16/5/4 14/7/4 13/8/4
f 13/8/1 14/7/1 10/9/1 9/10/1
f 11/11/5 15/6/5 13/8/5 9/12/5
f 16/5/6 12/13/6 10/14/6 14/7/6
f 17/1/7 18/2/7 20/3/7 19/4/7
f 19/4/8 20/3/8 24/5/8 23/6/8
f 23/6/9 24/5/9 22/7/9 21/8/9
f 21/8/10 22/7/10 18/9/10 17/10/10
f 19/11/11 23/6/11 21/8/11 17/12/11
f 24/5/12 20/13/12 18/14/12 22/7/12
f 25/1/13 27/4/13 28/3/13 26/2/13
f 27/4/14 31/6/14 32/5/14 28/3/14
f 31/6/15 29/8/15 30/7/15 32/5/15
f 29/8/16 25/10/16 26/9/16 30/7/16
f 27/11/17 25/12/17 29/8/17 31/6/17
f 32/5/18 30/7/18 26/14/18 28/13/18
f 33/1/19 35/4/19 36/3/19 34/2/19
f 35/4/8 39/6/8 40/5/8 36/3/8
f 39/6/20 37/8/20 38/7/20 40/5/20
f 37/8/10 33/10/10 34/9/10 38/7/10
f 35/11/21 33/12/21 37/8/21 39/6/21
f 40/5/22 38/7/22 34/14/22 36/13/22
f 41/1/23 42/2/23 44/3/23 43/4/23
f 43/4/14 44/3/14 48/5/14 47/6/14
f 47/6/24 48/5/24 46/7/24 45/8/24
f 45/8/16 46/7/16 42/9/16 41/10/16
f 43/11/25 47/6/25 45/8/25 41/12/25
f 48/5/26 44/13/26 42/14/26 46/7/26
